<?xml version="1.0" encoding="UTF-8"?>
<!DOCTYPE svg PUBLIC "-//W3C//DTD SVG 1.1//EN" "http://www.w3.org/Graphics/SVG/1.1/DTD/svg11.dtd">
<!-- Creator: CorelDRAW -->
<svg xmlns="http://www.w3.org/2000/svg" xml:space="preserve" width="4.2333mm" height="4.2335mm" version="1.1" style="shape-rendering:geometricPrecision; text-rendering:geometricPrecision; image-rendering:optimizeQuality; fill-rule:evenodd; clip-rule:evenodd"
viewBox="0 0 16.9 16.9"
 xmlns:xlink="http://www.w3.org/1999/xlink"
 xmlns:xodm="http://www.corel.com/coreldraw/odm/2003">
 <defs>
  <style type="text/css">
   <![CDATA[
    .fil0 {fill:#FFFDF9}
   ]]>
  </style>
 </defs>
 <g id="Layer_x0020_1">
  <metadata id="CorelCorpID_0Corel-Layer"/>
  <path class="fil0" d="M16.9 8.45c0,-1.11 -0.22,-2.21 -0.64,-3.23 -0.42,-1.03 -1.05,-1.96 -1.83,-2.74 -0.78,-0.78 -1.72,-1.41 -2.74,-1.83 -1.03,-0.42 -2.12,-0.64 -3.23,-0.64l0 1.69c1.34,0 2.64,0.4 3.76,1.14 1.11,0.74 1.98,1.8 2.49,3.03 0.34,0.82 0.52,1.7 0.52,2.59l1.69 0zm-16.9 -1.69l0 -4.23c0,-0.22 0.09,-0.44 0.25,-0.6 0.16,-0.16 0.37,-0.25 0.6,-0.25l4.23 0c0.22,0 0.44,0.09 0.6,0.25 0.16,0.16 0.25,0.37 0.25,0.6l0 3.38c0,0.22 -0.09,0.44 -0.25,0.6 -0.16,0.16 -0.37,0.25 -0.6,0.25l-1.69 0c0,1.79 0.71,3.51 1.98,4.78 1.27,1.27 2.99,1.98 4.78,1.98l0 -1.69c0,-0.22 0.09,-0.44 0.25,-0.6 0.16,-0.16 0.37,-0.25 0.6,-0.25l3.38 0c0.22,0 0.44,0.09 0.6,0.25 0.16,0.16 0.25,0.37 0.25,0.6l0 4.23c0,0.22 -0.09,0.44 -0.25,0.6 -0.16,0.16 -0.37,0.25 -0.6,0.25l-4.23 0c-5.6,0 -10.14,-4.54 -10.14,-10.14zm13.14 -0.25c0.25,0.62 0.39,1.27 0.39,1.94l-1.52 0c0,-0.94 -0.37,-1.84 -1.04,-2.51 -0.67,-0.67 -1.57,-1.04 -2.51,-1.04l0 -1.52c1,0 1.98,0.3 2.82,0.85 0.83,0.56 1.48,1.35 1.87,2.28z"/>
 </g>
</svg>
